<svg version="1.2" baseProfile="tiny-ps" xmlns="http://www.w3.org/2000/svg" viewBox="0 0 2048 1160" width="2048" height="1160">
	<title>Musiclink_logo</title>
	<style>
		tspan { white-space:pre }
		.shp0 { fill: #eb9d0e } 
		.shp1 { fill: #262626 } 
	</style>
	<g id="Background">
		<path id="Path 0" fill-rule="evenodd" class="shp0" d="M631.59 62C632.77 62 647.55 134.68 703.23 414.25C741.81 607.99 773.74 768.41 775 775L2006 775L2006 849L1360.58 848.75C1005.6 848.61 714.92 848.27 714.61 848C714.31 847.73 695.13 753 672 637.5C648.87 522 629.84 427.43 629.72 427.34C629.6 427.25 600.48 567.31 565 738.59C520.68 952.55 500.11 1049.99 499.25 1050C498.56 1050 497.99 1049.89 497.97 1049.75C497.95 1049.61 472.37 931.6 384.28 525.5L380.71 537C378.75 543.33 356.59 615.77 331.47 698C306.35 780.23 285.73 847.56 285.65 847.63C285.57 847.7 231.18 849.28 164.8 851.13C84.4 853.37 43.77 854.17 43.14 853.5C42.58 852.92 42.04 837.5 41.5 780.5L135.66 778C187.45 776.63 230.04 775.27 230.31 775C230.58 774.73 267.69 653.67 312.78 506C365.66 332.83 395.21 237.5 396.03 237.5C396.91 237.5 412.8 308.74 447.4 467.81C477.43 605.87 497.78 697.39 498.21 696.31C498.6 695.31 528.22 552.98 564.03 380C599.85 207.02 629.36 64.71 629.63 63.75C629.89 62.79 630.78 62 631.59 62ZM761 537L885 537L885 684L922.5 703.94L1039 704L1039 537L1118 537L1118 747L900.5 746.97L805.5 696.35L805 580L761 580L761 537ZM1174 537L1483 537L1483 610L1480.75 609.95C1479.51 609.93 1461.85 607.34 1404.5 598.49L1404 580L1253 580L1252.99 607.5L1362.24 624.86C1422.33 634.41 1474.09 642.62 1483 644L1483 747L1174 747L1174 712.5C1174 680.31 1174.12 678 1175.75 678C1176.71 677.99 1194.26 680.47 1214.75 683.5C1235.24 686.52 1252.22 689 1252.5 689C1252.78 689 1253 692.38 1253 704L1404 704L1404 691C1404 681.27 1403.69 678 1402.75 678C1402.06 678 1351.33 670.12 1290 660.49C1228.67 650.86 1177.49 642.76 1174 642L1174 537ZM1509 537L1633 537L1633 747L1554 747L1554 580L1509 580L1509 537ZM1662 537L2020 537L2020 576C2020 597.45 2019.89 615 2019.75 615C2019.61 615 2001.95 612.53 1980.5 609.51C1959.05 606.49 1941.16 604.01 1940.75 604.01C1940.34 604 1940 598.6 1940 580L1786 580L1786 704L1940 704L1940 692C1940 685.4 1940.34 680 1940.75 679.99C1941.16 679.99 1959.05 677.51 1980.5 674.49C2001.95 671.47 2019.61 669 2019.75 669C2019.89 669 2020 686.55 2020 747L1707 747L1707 580L1662 580L1662 537Z" />
		<path id="Path 1" class="shp1" d="M1076 981L1076 1090L1180 1090L1180 1047L1155 1047C1155 1000.67 1155.27 995.08 1156.25 995.38C1156.94 995.58 1193.72 1016.55 1238 1041.98C1282.28 1067.4 1318.95 1088.61 1319.5 1089.12C1320.07 1089.64 1335.16 1090.03 1354.25 1090.02L1388 1090L1388 880L1284 880L1284.5 922.5L1310 923C1310 987.33 1309.65 1001 1309 1001C1308.45 1001 1256.03 971.98 1192.5 936.5C1128.97 901.02 1076.78 872 1076.5 872C1076.22 872 1076 921.05 1076 981ZM554.23 901.25L554.5 922.5L599 923L599 1090L881 1090L881 1011C875.96 1011.73 859.88 1013.97 842 1016.45C824.13 1018.93 808.04 1021.2 806.25 1021.48L803 1022L803 1047L678 1047L678 880L553.96 880L554.23 901.25ZM893.23 901.25L893.5 922.5L938 923L938 1090L1016 1090L1016 880L892.96 880L893.23 901.25ZM1463 934.5C1463 977.07 1462.73 989.15 1461.75 989.68C1461.06 990.06 1451.05 992.88 1439.5 995.95L1418.5 1001.53C1418.09 1045.59 1418.35 1055 1419 1055C1419.55 1055 1429.22 1052.53 1440.5 1049.5C1451.78 1046.47 1461.45 1044 1462 1044C1462.64 1044 1463 1052.33 1463 1067L1463 1090L1541 1090L1540.94 1022.5C1559.2 1017.36 1567.31 1014.99 1570.75 1013.93L1577 1012L1676 1090L1774 1090L1774 1045L1722.5 1045.02C1671.35 1004.55 1656.39 992.4 1656.25 991.9C1656.11 991.41 1656.22 991 1656.5 991C1656.78 991 1682.09 984.24 1712.75 975.98C1743.41 967.71 1769.51 960.51 1770.75 959.98L1773 959L1773 880L1694 880L1694 927C1685.86 929.27 1651.78 938.5 1613 948.97C1574.22 959.45 1542.16 968.01 1541.75 968.01C1541.34 968 1541 948.2 1541 924L1541 880L1463 880L1463 934.5Z" />
	</g>
</svg>