<svg version="1.2" baseProfile="tiny-ps" xmlns="http://www.w3.org/2000/svg" viewBox="0 0 2048 1468" width="2048" height="1468">
	<title>Musiclink_logo_solo</title>
	<style>
		tspan { white-space:pre }
		.shp0 { fill: #eb9d0e } 
	</style>
	<path id="Path 0" class="shp0" d="M934.08 568.25C873.37 860.99 823.43 1100.81 823.1 1101.19C822.77 1101.57 783.58 922.35 736 702.94C688.42 483.52 649.05 304 648.5 304C647.95 304 590.35 490.98 520.5 719.51L393.5 1135.02C386.52 1135 311.15 1137.04 221.5 1139.55C131.85 1142.05 58.36 1144.19 58.2 1144.3C58.03 1144.41 58.18 1160.47 58.53 1180C58.88 1199.53 59.47 1216.05 59.83 1216.72C60.35 1217.67 103.16 1216.74 254.5 1212.5C361.2 1209.52 448.61 1206.94 448.74 1206.79C448.87 1206.63 491.05 1068.8 542.49 900.5C593.92 732.2 636.11 594.14 636.25 593.69C636.39 593.25 678.58 786.86 730 1023.94C781.42 1261.02 823.95 1455 824.5 1455C825.05 1455 873.84 1222.01 932.93 937.25C992.02 652.49 1041.27 415.23 1042.38 410L1044.39 400.5C1169.25 1025.36 1205.72 1207 1206 1207.27C1206.28 1207.54 1382.56 1208.04 1597.75 1208.38L1989 1209C1989.42 1152.81 1989.46 1136.28 1989.36 1136C1989.27 1135.72 1826.59 1135.12 1627.85 1134.66C1429.11 1134.2 1266.46 1133.75 1266.41 1133.66C1266.36 1133.57 1217.39 888.7 1157.58 589.5C1097.77 290.3 1048.42 43.36 1047.92 40.75C1047.4 38.05 1046.45 36 1045.72 36C1044.83 36 1011.44 195.2 934.08 568.25Z" />
</svg>